<svg width="24" height="24" viewBox="0 0 24 24" fill="none" xmlns="http://www.w3.org/2000/svg">
<path d="M15.51 2.82678H8.49C6 2.82678 5.45 4.06678 5.13 5.58678L4 10.9968H20L18.87 5.58678C18.55 4.06678 18 2.82678 15.51 2.82678Z" stroke="#90A3BF" stroke-width="1.5" stroke-linecap="round" stroke-linejoin="round"/>
<path d="M21.99 19.8168C22.1 20.9868 21.16 21.9968 19.96 21.9968H18.08C17 21.9968 16.85 21.5368 16.66 20.9668L16.46 20.3668C16.18 19.5468 16 18.9968 14.56 18.9968H9.43998C7.99998 18.9968 7.78998 19.6168 7.53998 20.3668L7.33998 20.9668C7.14998 21.5368 6.99998 21.9968 5.91998 21.9968H4.03998C2.83998 21.9968 1.89998 20.9868 2.00998 19.8168L2.56998 13.7268C2.70998 12.2268 2.99998 10.9968 5.61998 10.9968H18.38C21 10.9968 21.29 12.2268 21.43 13.7268L21.99 19.8168Z" stroke="#90A3BF" stroke-width="1.5" stroke-linecap="round" stroke-linejoin="round"/>
<path d="M4 7.99683H3" stroke="#90A3BF" stroke-width="1.5" stroke-linecap="round" stroke-linejoin="round"/>
<path d="M21 7.99683H20" stroke="#90A3BF" stroke-width="1.5" stroke-linecap="round" stroke-linejoin="round"/>
<path d="M12 2.99683V4.99683" stroke="#90A3BF" stroke-width="1.5" stroke-linecap="round" stroke-linejoin="round"/>
<path d="M10.5 4.99683H13.5" stroke="#90A3BF" stroke-width="1.5" stroke-linecap="round" stroke-linejoin="round"/>
<path d="M6 14.9968H9" stroke="#90A3BF" stroke-width="1.5" stroke-linecap="round" stroke-linejoin="round"/>
<path d="M15 14.9968H18" stroke="#90A3BF" stroke-width="1.5" stroke-linecap="round" stroke-linejoin="round"/>
</svg>
