<svg width="20" height="20" viewBox="0 0 20 20" fill="none" xmlns="http://www.w3.org/2000/svg">
<path d="M8.33325 6.66663H16.6666" stroke="#262626" stroke-width="1.3" stroke-linecap="round"/>
<path d="M3.33325 13.3334H11.6666" stroke="#262626" stroke-width="1.3" stroke-linecap="round"/>
<path d="M3.33325 6.66663C3.33325 8.04734 4.45254 9.16663 5.83325 9.16663C7.21396 9.16663 8.33325 8.04734 8.33325 6.66663C8.33325 5.28591 7.21396 4.16663 5.83325 4.16663C4.45254 4.16663 3.33325 5.28591 3.33325 6.66663Z" stroke="#262626" stroke-width="1.3" stroke-linecap="round"/>
<path d="M11.6667 13.3334C11.6667 14.7141 12.786 15.8334 14.1667 15.8334C15.5475 15.8334 16.6667 14.7141 16.6667 13.3334C16.6667 11.9527 15.5475 10.8334 14.1667 10.8334C12.786 10.8334 11.6667 11.9527 11.6667 13.3334Z" stroke="#262626" stroke-width="1.3" stroke-linecap="round"/>
</svg>
