<svg width="24" height="24" viewBox="0 0 24 24" fill="none" xmlns="http://www.w3.org/2000/svg">
<path d="M18.2566 6.61017L15.2952 3.70518C14.7439 3.16196 14.0881 2.73129 13.3659 2.43806C12.6437 2.14484 11.8694 1.99487 11.0877 1.99685H7.24999C6.12324 1.99817 5.04302 2.43758 4.24629 3.21869C3.44955 3.99981 3.00135 5.05885 3 6.16351V17.8302C3.00135 18.9348 3.44955 19.9939 4.24629 20.775C5.04302 21.5561 6.12324 21.9955 7.24999 21.9968H15.75C16.8767 21.9955 17.957 21.5561 18.7537 20.775C19.5504 19.9939 19.9986 18.9348 20 17.8302V10.7343C20.0021 9.96802 19.8491 9.20891 19.5498 8.50098C19.2506 7.79305 18.811 7.15037 18.2566 6.61017ZM17.0547 7.78851C17.3143 8.05029 17.5375 8.3445 17.7186 8.66351H14.05C13.8246 8.66351 13.6084 8.57571 13.4489 8.41943C13.2895 8.26315 13.2 8.05119 13.2 7.83017V4.23351C13.5255 4.41095 13.8258 4.62948 14.0933 4.88351L17.0547 7.78851ZM18.3 17.8302C18.3 18.4932 18.0313 19.1291 17.5531 19.5979C17.0749 20.0668 16.4263 20.3302 15.75 20.3302H7.24999C6.57369 20.3302 5.92509 20.0668 5.44687 19.5979C4.96866 19.1291 4.7 18.4932 4.7 17.8302V6.16351C4.7 5.50047 4.96866 4.86458 5.44687 4.39574C5.92509 3.9269 6.57369 3.66351 7.24999 3.66351H11.0877C11.2271 3.66351 11.3623 3.69018 11.5 3.70268V7.83017C11.5 8.49321 11.7686 9.1291 12.2469 9.59794C12.7251 10.0668 13.3737 10.3302 14.05 10.3302H18.26C18.2728 10.4652 18.3 10.5968 18.3 10.7343V17.8302Z" fill="#90A3BF"/>
</svg>
