<svg width="96" height="96" viewBox="0 0 96 96" fill="none" xmlns="http://www.w3.org/2000/svg">
<g clip-path="url(#clip0_1044_17768)">
<mask id="mask0_1044_17768" style="mask-type:luminance" maskUnits="userSpaceOnUse" x="-64" y="0" width="160" height="160">
<path d="M96 0H-64V160H96V0Z" fill="white"/>
</mask>
<g mask="url(#mask0_1044_17768)">
<path fill-rule="evenodd" clip-rule="evenodd" d="M16 160C60.1824 160 96 124.182 96 80C96 35.8172 60.1824 0 16 0C-28.1828 0 -64 35.8172 -64 80C-64 124.182 -28.1828 160 16 160ZM16 150.4C54.8808 150.4 86.4 118.881 86.4 80C86.4 41.1191 54.8808 9.6 16 9.6C-22.8809 9.6 -54.4 41.1191 -54.4 80C-54.4 118.881 -22.8809 150.4 16 150.4ZM16 140.8C49.5792 140.8 76.8 113.579 76.8 80C76.8 46.4211 49.5792 19.2 16 19.2C-17.5789 19.2 -44.8 46.4211 -44.8 80C-44.8 113.579 -17.5789 140.8 16 140.8ZM16 131.2C44.2768 131.2 67.2 108.277 67.2 80C67.2 51.723 44.2768 28.8 16 28.8C-12.277 28.8 -35.2 51.723 -35.2 80C-35.2 108.277 -12.277 131.2 16 131.2ZM57.6 80C57.6 102.975 38.9752 121.6 16 121.6C-6.97504 121.6 -25.6 102.975 -25.6 80C-25.6 57.025 -6.97504 38.4 16 38.4C38.9752 38.4 57.6 57.025 57.6 80ZM48 80C48 97.6728 33.6728 112 16 112C-1.67312 112 -16 97.6728 -16 80C-16 62.3269 -1.67312 48 16 48C33.6728 48 48 62.3269 48 80Z" fill="#D7E0FB"/>
</g>
</g>
<defs>
<clipPath id="clip0_1044_17768">
<rect width="160" height="160" fill="white" transform="translate(-64)"/>
</clipPath>
</defs>
</svg>
