<svg width="200" height="46" viewBox="0 0 200 46" fill="none" xmlns="http://www.w3.org/2000/svg">
<g clip-path="url(#clip0_1044_17729)">
<path d="M20.4109 45.9999C19.1541 45.9994 17.9195 45.6651 16.8308 45.0306L3.58014 37.3025C2.48602 36.6628 1.57866 35.7424 0.949967 34.6345C0.32127 33.5266 -0.0064383 32.2705 3.29807e-05 30.9935L0.0988436 15.177C0.109504 13.9245 0.440532 12.696 1.05979 11.6108C1.67906 10.5257 2.56552 9.62071 3.63312 8.98375L10.5642 4.88676L10.6659 20.9174C10.7088 23.5098 10.6745 26.1573 10.6401 28.7179C10.6172 30.4221 10.5943 32.1899 10.5943 33.91C10.5943 35.0095 11.296 35.6156 12.5705 35.6156C13.9181 35.6156 14.6899 35.0066 14.6899 33.9462L14.6169 25.4484H14.8374C16.732 25.4484 18.6438 25.431 20.4911 25.4137C22.4144 25.3963 24.2316 25.3789 26.0403 25.3789L26.0761 30.7866V43.7937L24.0297 45.0046C22.9322 45.6549 21.6832 45.9984 20.4109 45.9999ZM30.1259 41.3966L30.0228 23.3131C30.0586 18.5593 30.0586 16.6945 30.0586 12.6077C30.09 12.3395 30.0601 12.0676 29.9713 11.8129C29.8825 11.5582 29.7371 11.3275 29.5463 11.1384C29.3555 10.9492 29.1244 10.8068 28.8706 10.7219C28.6168 10.6371 28.3472 10.6121 28.0824 10.6489C27.8104 10.6082 27.5328 10.6311 27.2709 10.7159C27.0091 10.8007 26.77 10.9451 26.5722 11.138C26.3743 11.3309 26.2229 11.5671 26.1297 11.8285C26.0365 12.0898 26.004 12.3692 26.0346 12.6453C26.0346 13.6449 26.0417 15.0077 26.0503 16.4515C26.0603 18.1441 26.0704 20.0682 26.0704 21.7174L24.2373 21.7536C23.2607 21.7536 22.1723 21.7623 21.1198 21.7724C20.0672 21.7825 19.0047 21.7912 18.0595 21.7912C16.6618 21.7912 15.8155 21.7753 15.2556 21.7637C14.9778 21.7637 14.7773 21.755 14.6112 21.755C14.5925 18.8703 14.5925 13.3513 14.5925 8.4832C14.5925 6.32621 14.5925 4.25167 14.5925 2.50264L17.1401 0.9952C18.2313 0.349763 19.4722 0.00775002 20.7367 0.00393846C22.0011 0.000126902 23.2441 0.334652 24.339 0.973499L37.5897 8.70165C38.6839 9.34119 39.5914 10.2616 40.2201 11.3695C40.8488 12.4774 41.1764 13.7336 41.1698 15.0106L41.0724 30.8228C41.0619 32.0765 40.7307 33.3061 40.1109 34.3923C39.4911 35.4784 38.6039 36.3843 37.5353 37.0218L30.1345 41.4009L30.1259 41.3966Z" fill="#3563E9"/>
<path d="M67.3518 23.8761C67.3862 19.3277 67.3862 17.4875 67.3862 13.6336C67.4162 13.3768 67.3876 13.1165 67.3028 12.8725C67.2179 12.6285 67.079 12.4074 66.8966 12.2259C66.7143 12.0445 66.4933 11.9075 66.2505 11.8255C66.0077 11.7436 65.7496 11.7187 65.4959 11.7529C65.2357 11.7141 64.9702 11.7361 64.7198 11.8172C64.4694 11.8984 64.2408 12.0365 64.0515 12.221C63.8623 12.4055 63.7174 12.6314 63.6282 12.8813C63.539 13.1312 63.5077 13.3985 63.5369 13.6625C63.5369 15.7457 63.5712 19.4261 63.5712 22.3426L61.8184 22.3773C59.9568 22.3773 57.7285 22.412 55.9069 22.412C53.9135 22.412 53.0887 22.3773 52.6132 22.3773C52.5789 16.8568 52.6132 15.5027 52.5789 13.35C52.5789 12.3084 51.754 11.8571 50.7172 11.8571C49.4112 11.8571 48.6895 12.4126 48.6895 13.6278L48.8327 21.5845C48.8957 25.7162 48.7639 29.8827 48.7639 34.0144C48.7639 35.1949 49.583 35.6462 50.6485 35.6462C51.7483 35.6462 52.6763 35.1949 52.6763 34.0549L52.6075 25.9246C56.3194 25.9246 60.0312 25.8551 63.5369 25.8551L63.5712 31.0284V33.9449C63.5712 35.0907 64.3617 35.6462 65.4959 35.6462C66.7676 35.6462 67.4893 35.1601 67.4893 33.9449L67.3518 23.8761ZM75.3598 28.5286C79.4497 28.4939 81.7868 28.5286 83.7115 28.4591C86.1173 28.4244 86.3923 27.5217 86.3923 25.7105C86.2816 23.9438 85.4955 22.2897 84.2001 21.0976C82.9046 19.9056 81.2012 19.2688 79.4497 19.3219C74.9817 19.3219 71.5448 23.2453 71.5448 28.1061C71.5746 30.1472 72.3994 32.0942 73.8405 33.5251C75.2816 34.956 77.2229 35.7556 79.2435 35.7504C81.1848 35.8655 83.1147 35.3811 84.7769 34.3616C85.0681 34.2062 85.3154 33.9787 85.4958 33.7004C85.6761 33.422 85.7836 33.102 85.808 32.7702C85.8153 32.3251 85.6578 31.8933 85.3664 31.5594C85.0751 31.2254 84.6708 31.0134 84.2327 30.9648C83.7533 30.9873 83.2893 31.1435 82.8924 31.4161C81.8799 32.0185 80.7278 32.3399 79.5528 32.3478C78.5025 32.3758 77.4816 31.9951 76.7012 31.2842C75.9208 30.5734 75.4406 29.5869 75.3598 28.5286ZM79.5127 22.4178C79.9393 22.4098 80.3632 22.4871 80.76 22.6453C81.1569 22.8035 81.5188 23.0395 81.825 23.3396C82.1312 23.6398 82.3755 23.9981 82.5439 24.3941C82.7124 24.7901 82.8016 25.2158 82.8064 25.6468C82.8064 25.8204 82.6346 25.9246 82.394 25.9593C80.9505 26.0634 77.1699 26.1039 75.377 26.1039C75.5052 25.0857 75.9965 24.1496 76.7589 23.4711C77.5213 22.7925 78.5024 22.4181 79.5185 22.4178H79.5127ZM89.5485 32.5908C89.374 32.762 89.2358 32.9673 89.1422 33.1941C89.0487 33.4209 89.0018 33.6645 89.0043 33.9102C89.0587 34.3876 89.2848 34.8282 89.6396 35.1482C89.9945 35.4683 90.4533 35.6455 90.929 35.6462C91.2805 35.6393 91.6241 35.5395 91.9256 35.3568C92.2271 35.174 92.4759 34.9147 92.6474 34.6046C93.5066 33.4936 94.7439 31.8964 96.3249 29.9868C97.1498 31.0284 99.1432 33.5283 99.968 34.5699C100.147 34.8767 100.396 35.135 100.696 35.3225C100.995 35.51 101.335 35.6211 101.686 35.6462C102.155 35.6405 102.607 35.4661 102.959 35.1542C103.312 34.8423 103.543 34.4135 103.611 33.9449C103.591 33.649 103.51 33.3605 103.374 33.0976C103.238 32.8347 103.05 32.6031 102.821 32.4172L98.5245 27.5217L101.549 24.0149C102.614 22.8345 103.474 22.1343 103.474 21.2026C103.413 20.7186 103.181 20.2729 102.822 19.9476C102.462 19.6223 101.998 19.4392 101.515 19.4319C100.896 19.4319 100.449 19.7444 99.7274 20.6124C98.1808 22.5914 96.9779 24.1191 96.2562 24.9871C95.5401 24.0844 94.6065 22.9386 92.4756 20.2652C92.3076 20.0171 92.0818 19.8145 91.8181 19.6752C91.5544 19.536 91.2609 19.4643 90.9633 19.4666C90.1385 19.5013 89.1017 20.2652 89.1017 21.0984C89.1185 21.6257 89.3408 22.1249 89.7203 22.4873C90.7858 23.8066 92.3667 25.5426 93.4666 26.7926L94.0508 27.4522L92.5443 29.2924L89.5485 32.5908ZM122.136 24.2927L122.17 21.6192C122.17 20.2999 121.758 19.5013 120.383 19.5013C120.048 19.484 119.717 19.5807 119.443 19.7758C119.169 19.9709 118.968 20.2532 118.871 20.5776C118.802 20.8901 118.728 21.4456 118.665 21.8623C118.149 21.095 117.45 20.4706 116.634 20.0461C115.817 19.6215 114.909 19.4104 113.991 19.4319C109.523 19.4319 106.086 22.9386 106.086 28.0078C106.038 29.0182 106.196 30.0277 106.552 30.9734C106.907 31.919 107.452 32.7805 108.152 33.5038C108.852 34.2272 109.692 34.797 110.62 35.1775C111.547 35.5581 112.543 35.7413 113.544 35.7157C114.557 35.7642 115.564 35.5308 116.455 35.0411C117.346 34.5513 118.086 33.8238 118.596 32.938C118.837 34.7493 119.146 35.6173 120.28 35.6173C121.283 35.6173 122.239 35.2701 122.239 34.0259C122.136 32.533 122.096 31.0747 122.096 29.5818L122.136 24.2927ZM109.901 27.9094C109.901 24.8193 111.722 22.7014 114.197 22.7014C114.805 22.7087 115.405 22.8433 115.959 23.0966C116.513 23.3499 117.009 23.7165 117.416 24.1732C117.823 24.6299 118.132 25.1668 118.323 25.7501C118.514 26.3334 118.584 26.9504 118.527 27.5622C118.575 28.188 118.493 28.8169 118.288 29.4093C118.083 30.0018 117.759 30.545 117.336 31.0048C116.913 31.4646 116.401 31.831 115.831 32.0811C115.261 32.3311 114.646 32.4594 114.025 32.4578C113.454 32.4442 112.892 32.3141 112.373 32.0755C111.853 31.8369 111.387 31.4945 111.002 31.0691C110.616 30.6437 110.32 30.144 110.131 29.6C109.942 29.056 109.863 28.479 109.901 27.9036V27.9094ZM126.707 14.2296L126.81 24.8193L126.741 33.1869C126.701 33.7193 126.869 34.2464 127.21 34.6546C127.551 35.0627 128.037 35.3192 128.563 35.3685C130.075 35.5073 131.759 35.4726 133.134 35.4726C140.97 35.4032 146.194 32.0353 146.194 22.9039C146.194 15.7515 140.73 12.0365 134.268 11.8281C133.787 11.7934 130.797 11.8281 130.213 11.8281C128.426 11.8281 126.707 12.2448 126.707 14.2238V14.2296ZM133.65 15.3059C138.255 15.3059 142.414 17.7016 142.414 23.2916C142.414 29.7843 138.461 31.9717 132.894 31.9717C131.141 31.9717 130.591 32.0064 130.591 31.1731V15.3638C131.381 15.3002 133.168 15.3002 133.65 15.3002V15.3059ZM164.788 24.2927L164.822 21.6192C164.822 20.2999 164.41 19.5013 163.035 19.5013C162.7 19.484 162.369 19.5807 162.095 19.7758C161.821 19.9709 161.62 20.2532 161.523 20.5776C161.454 20.8901 161.38 21.4456 161.317 21.8623C160.801 21.095 160.102 20.4706 159.286 20.0461C158.469 19.6215 157.561 19.4104 156.643 19.4319C152.175 19.4319 148.738 22.9386 148.738 28.0078C148.689 29.0182 148.848 30.0277 149.204 30.9734C149.559 31.919 150.104 32.7805 150.804 33.5038C151.504 34.2272 152.344 34.797 153.272 35.1775C154.199 35.5581 155.195 35.7413 156.196 35.7157C157.209 35.7642 158.216 35.5308 159.107 35.0411C159.997 34.5513 160.738 33.8238 161.248 32.938C161.489 34.7493 161.798 35.6173 162.932 35.6173C163.934 35.6173 164.891 35.2701 164.891 34.0259C164.788 32.533 164.748 31.0747 164.748 29.5818L164.788 24.2927ZM152.553 27.9094C152.553 24.8193 154.374 22.7014 156.849 22.7014C157.456 22.7088 158.056 22.8432 158.61 23.0961C159.163 23.3491 159.659 23.7152 160.066 24.1712C160.473 24.6273 160.782 25.1635 160.973 25.7461C161.165 26.3287 161.235 26.9451 161.179 27.5564C161.226 28.1822 161.145 28.8111 160.94 29.4036C160.735 29.996 160.411 30.5392 159.988 30.999C159.565 31.4588 159.053 31.8252 158.483 32.0753C157.913 32.3253 157.298 32.4536 156.677 32.452C156.107 32.4383 155.545 32.3085 155.026 32.0702C154.507 31.8319 154.041 31.4901 153.656 31.0653C153.27 30.6406 152.974 30.1415 152.785 29.5982C152.595 29.0549 152.516 28.4785 152.553 27.9036V27.9094ZM175.099 19.374C171.868 19.374 168.775 21.4572 168.775 24.5126C168.775 27.6374 171.765 28.3666 174.514 28.7485C176.645 29.0494 177.848 29.3966 177.848 30.716C177.848 31.9659 176.611 32.6256 175.099 32.6256C172.693 32.6256 171.387 31.6129 170.115 31.6129C169.015 31.6129 168.637 32.5156 168.637 33.4936C168.637 34.7088 171.731 35.7504 174.755 35.7504C178.742 35.7504 181.285 33.8697 181.285 30.6118C181.285 27.4175 178.776 26.3759 175.477 25.9246C173.758 25.6815 172.212 25.5774 172.212 24.2927C172.212 23.1122 173.552 22.3484 175.133 22.3484C176.533 22.5228 177.92 22.7895 179.286 23.1469C180.317 23.1469 180.764 22.4873 180.764 21.5151C180.764 20.8207 180.283 20.4388 179.698 20.161C178.236 19.5785 176.67 19.3067 175.099 19.3624V19.374ZM185.031 12.2216L185.066 29.3966C185.066 30.5076 184.963 32.4867 184.963 34.0144C184.964 34.2489 185.015 34.4805 185.112 34.6937C185.208 34.907 185.349 35.097 185.524 35.2513C185.699 35.4056 185.904 35.5205 186.126 35.5886C186.349 35.6567 186.583 35.6763 186.813 35.6462C187.981 35.6462 188.772 35.0907 188.772 34.0144C188.772 32.423 188.703 29.2924 188.703 27.1745C188.666 26.6194 188.738 26.0624 188.915 25.5356C189.092 25.0089 189.371 24.5228 189.735 24.1057C190.1 23.6886 190.542 23.3487 191.038 23.1056C191.533 22.8626 192.071 22.7212 192.621 22.6898C194.718 22.6898 195.955 24.0786 195.955 26.6132C195.955 28.1756 195.852 32.6198 195.783 33.9391C195.783 35.0502 196.677 35.571 197.673 35.571C198.842 35.571 199.667 35.0502 199.701 33.9391C199.736 31.1268 199.701 28.6964 199.701 26.3354C199.701 22.3773 197.57 19.2872 193.583 19.2872C192.606 19.2632 191.64 19.5058 190.787 19.9895C189.934 20.4732 189.226 21.1801 188.737 22.0359C188.806 14.6752 188.841 13.0781 188.841 12.0017C188.876 11.75 188.853 11.4935 188.775 11.252C188.696 11.0105 188.564 10.7905 188.388 10.6088C188.212 10.4271 187.997 10.2886 187.76 10.2041C187.522 10.1195 187.269 10.0911 187.019 10.1211C185.684 10.1268 185.031 10.8212 185.031 12.2101V12.2216Z" fill="#3563E9"/>
</g>
<defs>
<clipPath id="clip0_1044_17729">
<rect width="199.723" height="46" fill="white"/>
</clipPath>
</defs>
</svg>
