<svg width="24" height="24" viewBox="0 0 24 24" fill="none" xmlns="http://www.w3.org/2000/svg">
<path d="M3 9.10681V14.8768C3 16.9968 3 16.9968 5 18.3468L10.5 21.5268C11.33 22.0068 12.68 22.0068 13.5 21.5268L19 18.3468C21 16.9968 21 16.9968 21 14.8868V9.10681C21 6.99681 21 6.99681 19 5.64681L13.5 2.46681C12.68 1.98681 11.33 1.98681 10.5 2.46681L5 5.64681C3 6.99681 3 6.99681 3 9.10681Z" stroke="#90A3BF" stroke-width="1.5" stroke-linecap="round" stroke-linejoin="round"/>
<path d="M12 14.9968C13.6569 14.9968 15 13.6537 15 11.9968C15 10.34 13.6569 8.99683 12 8.99683C10.3431 8.99683 9 10.34 9 11.9968C9 13.6537 10.3431 14.9968 12 14.9968Z" stroke="#90A3BF" stroke-width="1.5" stroke-linecap="round" stroke-linejoin="round"/>
</svg>
