<svg width="20" height="20" viewBox="0 0 20 20" fill="none" xmlns="http://www.w3.org/2000/svg">
<path d="M17.9534 9.62084C18.2067 9.97609 18.3334 10.1538 18.3334 10.4167C18.3334 10.6796 18.2067 10.8573 17.9534 11.2125C16.8149 12.8088 13.9077 16.25 10 16.25C6.09234 16.25 3.1851 12.8088 2.04672 11.2125C1.79336 10.8573 1.66669 10.6796 1.66669 10.4167C1.66669 10.1538 1.79336 9.97609 2.04672 9.62084C3.1851 8.0245 6.09234 4.58334 10 4.58334C13.9077 4.58334 16.8149 8.0245 17.9534 9.62084Z" stroke="#262626" stroke-width="1.5"/>
<path d="M12.5 10.4167C12.5 9.03591 11.3807 7.91666 10 7.91666C8.61925 7.91666 7.5 9.03591 7.5 10.4167C7.5 11.7974 8.61925 12.9167 10 12.9167C11.3807 12.9167 12.5 11.7974 12.5 10.4167Z" stroke="#262626" stroke-width="1.5"/>
</svg>
