<svg width="16" height="16" viewBox="0 0 16 16" fill="none" xmlns="http://www.w3.org/2000/svg">
<path d="M6.3335 1.5C6.60964 1.5 6.8335 1.72386 6.8335 2V14C6.8335 14.2762 6.60964 14.5 6.3335 14.5C6.05736 14.5 5.8335 14.2762 5.8335 14V2C5.8335 1.72386 6.05736 1.5 6.3335 1.5Z" fill="#8D8D8D"/>
<path d="M6.68703 1.61325C6.49179 1.41798 6.1752 1.41798 5.97994 1.61325L1.97994 5.61325C1.78468 5.80851 1.78468 6.12509 1.97994 6.32035C2.1752 6.51562 2.49179 6.51561 2.68705 6.32035L6.68703 2.32035C6.88229 2.12509 6.88229 1.80851 6.68703 1.61325Z" fill="#8D8D8D"/>
<path d="M9.66699 1.53418C9.94313 1.53418 10.167 1.75803 10.167 2.03418V14.0342C10.167 14.3103 9.94313 14.5342 9.66699 14.5342C9.39086 14.5342 9.16699 14.3103 9.16699 14.0342V2.03418C9.16699 1.75803 9.39086 1.53418 9.66699 1.53418Z" fill="#262626"/>
<path d="M14.0205 9.68063C14.2158 9.8759 14.2158 10.1924 14.0205 10.3877L10.0205 14.3877C9.82524 14.583 9.50871 14.583 9.31344 14.3877C9.11818 14.1924 9.11818 13.8759 9.31344 13.6806L13.3134 9.68063C13.5087 9.48536 13.8252 9.48536 14.0205 9.68063Z" fill="#262626"/>
</svg>
