<svg width="24" height="24" viewBox="0 0 24 24" fill="none" xmlns="http://www.w3.org/2000/svg">
<path d="M3 21.9968H21" stroke="#90A3BF" stroke-width="1.5" stroke-linecap="round" stroke-linejoin="round"/>
<path d="M5.59998 8.37683H4C3.45 8.37683 3 8.82683 3 9.37683V17.9968C3 18.5468 3.45 18.9968 4 18.9968H5.59998C6.14998 18.9968 6.59998 18.5468 6.59998 17.9968V9.37683C6.59998 8.82683 6.14998 8.37683 5.59998 8.37683Z" stroke="#90A3BF" stroke-width="1.5" stroke-linecap="round" stroke-linejoin="round"/>
<path d="M12.7999 5.18677H11.2C10.65 5.18677 10.2 5.63677 10.2 6.18677V17.9968C10.2 18.5468 10.65 18.9968 11.2 18.9968H12.7999C13.3499 18.9968 13.7999 18.5468 13.7999 17.9968V6.18677C13.7999 5.63677 13.3499 5.18677 12.7999 5.18677Z" stroke="#90A3BF" stroke-width="1.5" stroke-linecap="round" stroke-linejoin="round"/>
<path d="M20 1.99683H18.4C17.85 1.99683 17.4 2.44683 17.4 2.99683V17.9968C17.4 18.5468 17.85 18.9968 18.4 18.9968H20C20.55 18.9968 21 18.5468 21 17.9968V2.99683C21 2.44683 20.55 1.99683 20 1.99683Z" stroke="#90A3BF" stroke-width="1.5" stroke-linecap="round" stroke-linejoin="round"/>
</svg>
