<svg width="26" height="26" viewBox="0 0 26 26" fill="none" xmlns="http://www.w3.org/2000/svg">
<g clip-path="url(#clip0_1052_21670)">
<path d="M26 9.20828C26 8.77731 25.8288 8.36398 25.524 8.05924C25.2193 7.75449 24.806 7.58328 24.375 7.58328C24.375 7.58328 23.7423 7.58328 23.6979 7.59195C22.8879 6.09103 21.9598 4.65687 20.9224 3.30303C20.3811 2.59919 19.6311 2.08461 18.7796 1.83295C16.8718 0.905618 9.12817 0.905618 7.22042 1.83295C6.36892 2.08461 5.61886 2.59919 5.07758 3.30303C4.04024 4.65687 3.11215 6.09103 2.30208 7.59195C2.25767 7.58328 1.625 7.58328 1.625 7.58328C1.19402 7.58328 0.780698 7.75449 0.475951 8.05924C0.171205 8.36398 0 8.77731 0 9.20828L0 16.25C0.000209449 17.0104 0.200536 17.7574 0.580855 18.4159C0.961174 19.0745 1.50809 19.6213 2.16667 20.0015V21.6666C2.16667 22.5286 2.50908 23.3552 3.11857 23.9647C3.72806 24.5742 4.55471 24.9166 5.41667 24.9166C6.27862 24.9166 7.10527 24.5742 7.71476 23.9647C8.32426 23.3552 8.66667 22.5286 8.66667 21.6666V20.5833H17.3333V21.6666C17.3333 22.5286 17.6757 23.3552 18.2852 23.9647C18.8947 24.5742 19.7214 24.9166 20.5833 24.9166C21.4453 24.9166 22.2719 24.5742 22.8814 23.9647C23.4909 23.3552 23.8333 22.5286 23.8333 21.6666V20.0015C24.4919 19.6213 25.0388 19.0745 25.4191 18.4159C25.7995 17.7574 25.9998 17.0104 26 16.25V9.20828ZM6.79683 4.62145C7.06222 4.27919 7.42881 4.02937 7.84442 3.90753C9.49 3.09395 16.5111 3.09395 18.1556 3.90753C18.5712 4.02937 18.9378 4.27919 19.2032 4.62145C20.8483 6.77864 22.2032 9.14244 23.2332 11.6523C16.447 10.6621 9.55302 10.6621 2.76683 11.6523C3.79676 9.14244 5.15167 6.77864 6.79683 4.62145ZM6.5 21.6666C6.5 21.9539 6.38586 22.2295 6.1827 22.4327C5.97953 22.6358 5.70398 22.75 5.41667 22.75C5.12935 22.75 4.8538 22.6358 4.65063 22.4327C4.44747 22.2295 4.33333 21.9539 4.33333 21.6666V20.5833H6.5V21.6666ZM21.6667 21.6666C21.6667 21.9539 21.5525 22.2295 21.3494 22.4327C21.1462 22.6358 20.8707 22.75 20.5833 22.75C20.296 22.75 20.0205 22.6358 19.8173 22.4327C19.6141 22.2295 19.5 21.9539 19.5 21.6666V20.5833H21.6667V21.6666ZM21.6667 18.4166H4.33333C3.7587 18.4166 3.2076 18.1883 2.80127 17.782C2.39494 17.3757 2.16667 16.8246 2.16667 16.25V13.9284C5.75332 13.3801 9.37235 13.0699 13 13C16.6276 13.0699 20.2467 13.3801 23.8333 13.9284V16.25C23.8333 16.8246 23.6051 17.3757 23.1987 17.782C22.7924 18.1883 22.2413 18.4166 21.6667 18.4166ZM6.5 16.25C6.5 16.5373 6.38586 16.8128 6.1827 17.016C5.97953 17.2191 5.70398 17.3333 5.41667 17.3333C5.12935 17.3333 4.8538 17.2191 4.65063 17.016C4.44747 16.8128 4.33333 16.5373 4.33333 16.25C4.33333 15.9626 4.44747 15.6871 4.65063 15.4839C4.8538 15.2808 5.12935 15.1666 5.41667 15.1666C5.70398 15.1666 5.97953 15.2808 6.1827 15.4839C6.38586 15.6871 6.5 15.9626 6.5 16.25ZM21.6667 16.25C21.6667 16.5373 21.5525 16.8128 21.3494 17.016C21.1462 17.2191 20.8707 17.3333 20.5833 17.3333C20.296 17.3333 20.0205 17.2191 19.8173 17.016C19.6141 16.8128 19.5 16.5373 19.5 16.25C19.5 15.9626 19.6141 15.6871 19.8173 15.4839C20.0205 15.2808 20.296 15.1666 20.5833 15.1666C20.8707 15.1666 21.1462 15.2808 21.3494 15.4839C21.5525 15.6871 21.6667 15.9626 21.6667 16.25Z" fill="#FCA55A"/>
</g>
<defs>
<clipPath id="clip0_1052_21670">
<rect width="26" height="26" fill="white"/>
</clipPath>
</defs>
</svg>
