<svg width="20" height="20" viewBox="0 0 20 20" fill="none" xmlns="http://www.w3.org/2000/svg">
<mask id="mask0_2787_1487" style="mask-type:alpha" maskUnits="userSpaceOnUse" x="0" y="0" width="20" height="20">
<rect width="20" height="20" fill="#D9D9D9"/>
</mask>
<g mask="url(#mask0_2787_1487)">
<path d="M4.99992 16.6667C4.54159 16.6667 4.14922 16.5035 3.82284 16.1771C3.49645 15.8507 3.33325 15.4583 3.33325 15V13.3333C3.33325 13.0972 3.41311 12.8993 3.57284 12.7396C3.73256 12.5799 3.93047 12.5 4.16659 12.5C4.4027 12.5 4.60061 12.5799 4.76034 12.7396C4.92006 12.8993 4.99992 13.0972 4.99992 13.3333V15H14.9999V13.3333C14.9999 13.0972 15.0798 12.8993 15.2395 12.7396C15.3992 12.5799 15.5971 12.5 15.8333 12.5C16.0694 12.5 16.2673 12.5799 16.427 12.7396C16.5867 12.8993 16.6666 13.0972 16.6666 13.3333V15C16.6666 15.4583 16.5034 15.8507 16.177 16.1771C15.8506 16.5035 15.4583 16.6667 14.9999 16.6667H4.99992ZM9.16658 6.54167L7.60408 8.10417C7.43742 8.27083 7.2395 8.35069 7.01033 8.34375C6.78117 8.33681 6.58325 8.25 6.41658 8.08333C6.26381 7.91667 6.18395 7.72222 6.177 7.5C6.17006 7.27778 6.24992 7.08333 6.41658 6.91667L9.41658 3.91667C9.49992 3.83333 9.5902 3.77431 9.68742 3.73958C9.78464 3.70486 9.88881 3.6875 9.99992 3.6875C10.111 3.6875 10.2152 3.70486 10.3124 3.73958C10.4096 3.77431 10.4999 3.83333 10.5833 3.91667L13.5833 6.91667C13.7499 7.08333 13.8298 7.27778 13.8228 7.5C13.8159 7.72222 13.736 7.91667 13.5833 8.08333C13.4166 8.25 13.2187 8.33681 12.9895 8.34375C12.7603 8.35069 12.5624 8.27083 12.3958 8.10417L10.8333 6.54167V12.5C10.8333 12.7361 10.7534 12.934 10.5937 13.0938C10.4339 13.2535 10.236 13.3333 9.99992 13.3333C9.76381 13.3333 9.56589 13.2535 9.40617 13.0938C9.24645 12.934 9.16658 12.7361 9.16658 12.5V6.54167Z" fill="white"/>
</g>
</svg>
