<svg width="24" height="24" viewBox="0 0 24 24" fill="none" xmlns="http://www.w3.org/2000/svg">
<path d="M18.2566 6.61335L15.2952 3.70835C14.7439 3.16513 14.0881 2.73446 13.3659 2.44123C12.6437 2.14801 11.8694 1.99805 11.0877 2.00002H7.24999C6.12324 2.00134 5.04302 2.44075 4.24629 3.22187C3.44955 4.00298 3.00135 5.06202 3 6.16668V17.8333C3.00135 18.938 3.44955 19.997 4.24629 20.7782C5.04302 21.5593 6.12324 21.9987 7.24999 22H15.75C16.8767 21.9987 17.957 21.5593 18.7537 20.7782C19.5504 19.997 19.9986 18.938 20 17.8333V10.7375C20.0021 9.9712 19.8491 9.21209 19.5498 8.50416C19.2506 7.79623 18.811 7.15355 18.2566 6.61335ZM17.0547 7.79168C17.3143 8.05347 17.5375 8.34767 17.7186 8.66668H14.05C13.8246 8.66668 13.6084 8.57888 13.4489 8.4226C13.2895 8.26632 13.2 8.05436 13.2 7.83335V4.23668C13.5255 4.41412 13.8258 4.63265 14.0933 4.88668L17.0547 7.79168ZM18.3 17.8333C18.3 18.4964 18.0313 19.1323 17.5531 19.6011C17.0749 20.0699 16.4263 20.3333 15.75 20.3333H7.24999C6.57369 20.3333 5.92509 20.0699 5.44687 19.6011C4.96866 19.1323 4.7 18.4964 4.7 17.8333V6.16668C4.7 5.50364 4.96866 4.86776 5.44687 4.39892C5.92509 3.93008 6.57369 3.66668 7.24999 3.66668H11.0877C11.2271 3.66668 11.3623 3.69335 11.5 3.70585V7.83335C11.5 8.49639 11.7686 9.13227 12.2469 9.60111C12.7251 10.07 13.3737 10.3333 14.05 10.3333H18.26C18.2728 10.4683 18.3 10.6 18.3 10.7375V17.8333Z" fill="#3563E9"/>
</svg>
