<svg width="96" height="96" viewBox="0 0 96 96" fill="none" xmlns="http://www.w3.org/2000/svg">
<g clip-path="url(#clip0_1044_17774)">
<mask id="mask0_1044_17774" style="mask-type:luminance" maskUnits="userSpaceOnUse" x="0" y="-64" width="160" height="160">
<path d="M160 -64H0V96H160V-64Z" fill="white"/>
</mask>
<g mask="url(#mask0_1044_17774)">
<path fill-rule="evenodd" clip-rule="evenodd" d="M80 96C124.182 96 160 60.1824 160 16C160 -28.1828 124.182 -64 80 -64C35.8172 -64 0 -28.1828 0 16C0 60.1824 35.8172 96 80 96ZM80 86.4C118.881 86.4 150.4 54.8808 150.4 16C150.4 -22.8809 118.881 -54.4 80 -54.4C41.1191 -54.4 9.6 -22.8809 9.6 16C9.6 54.8808 41.1191 86.4 80 86.4ZM80 76.8C113.579 76.8 140.8 49.5792 140.8 16C140.8 -17.5789 113.579 -44.8 80 -44.8C46.4211 -44.8 19.2 -17.5789 19.2 16C19.2 49.5792 46.4211 76.8 80 76.8ZM80 67.2C108.277 67.2 131.2 44.2768 131.2 16C131.2 -12.277 108.277 -35.2 80 -35.2C51.723 -35.2 28.8 -12.277 28.8 16C28.8 44.2768 51.723 67.2 80 67.2ZM121.6 16C121.6 38.9752 102.975 57.6 80 57.6C57.025 57.6 38.4 38.9752 38.4 16C38.4 -6.97504 57.025 -25.6 80 -25.6C102.975 -25.6 121.6 -6.97504 121.6 16ZM112 16C112 33.6728 97.6728 48 80 48C62.3269 48 48 33.6728 48 16C48 -1.67312 62.3269 -16 80 -16C97.6728 -16 112 -1.67312 112 16Z" fill="#D7E0FB"/>
</g>
</g>
<defs>
<clipPath id="clip0_1044_17774">
<rect width="160" height="160" fill="white" transform="translate(0 -64)"/>
</clipPath>
</defs>
</svg>
