<svg width="24" height="24" viewBox="0 0 24 24" fill="none" xmlns="http://www.w3.org/2000/svg">
<path d="M2.5 13.2368V11.5068C2.5 9.43684 4.18999 7.74683 6.25999 7.74683H17.74C19.81 7.74683 21.5 9.43684 21.5 11.5068V12.9468H19.48C18.92 12.9468 18.41 13.1668 18.04 13.5468C17.62 13.9568 17.38 14.5468 17.44 15.1768C17.53 16.2568 18.52 17.0468 19.6 17.0468H21.5V18.2368C21.5 20.3068 19.81 21.9968 17.74 21.9968H12.26" stroke="#90A3BF" stroke-width="1.5" stroke-linecap="round" stroke-linejoin="round"/>
<path d="M2.5 12.4069V7.83693C2.5 6.64693 3.23 5.58689 4.34 5.16689L12.28 2.16689C13.52 1.69689 14.85 2.61692 14.85 3.94692V7.7469" stroke="#90A3BF" stroke-width="1.5" stroke-linecap="round" stroke-linejoin="round"/>
<path d="M22.5588 13.967V16.027C22.5588 16.577 22.1188 17.027 21.5588 17.047H19.5988C18.5188 17.047 17.5288 16.257 17.4388 15.177C17.3788 14.547 17.6188 13.957 18.0388 13.547C18.4088 13.167 18.9188 12.947 19.4788 12.947H21.5588C22.1188 12.967 22.5588 13.417 22.5588 13.967Z" stroke="#90A3BF" stroke-width="1.5" stroke-linecap="round" stroke-linejoin="round"/>
<path d="M7 11.9968H14" stroke="#90A3BF" stroke-width="1.5" stroke-linecap="round" stroke-linejoin="round"/>
<path d="M3 16.4968H8.34C8.98 16.4968 9.5 17.0168 9.5 17.6568V18.9368" stroke="#90A3BF" stroke-width="1.5" stroke-miterlimit="10" stroke-linecap="round" stroke-linejoin="round"/>
<path d="M4.22 15.2769L3 16.4968L4.22 17.7168" stroke="#90A3BF" stroke-width="1.5" stroke-miterlimit="10" stroke-linecap="round" stroke-linejoin="round"/>
<path d="M9.5 21.7769H4.16C3.52 21.7769 3 21.2569 3 20.6169V19.3369" stroke="#90A3BF" stroke-width="1.5" stroke-miterlimit="10" stroke-linecap="round" stroke-linejoin="round"/>
<path d="M8.28125 22.9971L9.50125 21.7772L8.28125 20.5571" stroke="#90A3BF" stroke-width="1.5" stroke-miterlimit="10" stroke-linecap="round" stroke-linejoin="round"/>
</svg>
