<svg width="16" height="16" viewBox="0 0 16 16" fill="none" xmlns="http://www.w3.org/2000/svg">
<path d="M6.33325 1.49988C6.60939 1.49988 6.83325 1.72374 6.83325 1.99988V13.9999C6.83325 14.276 6.60939 14.4999 6.33325 14.4999C6.05711 14.4999 5.83325 14.276 5.83325 13.9999V1.99988C5.83325 1.72374 6.05711 1.49988 6.33325 1.49988Z" fill="#262626"/>
<path d="M6.68678 1.61288C6.49154 1.41761 6.17496 1.41761 5.9797 1.61288L1.9797 5.61288C1.78444 5.80815 1.78444 6.12473 1.9797 6.31999C2.17496 6.51525 2.49154 6.51525 2.6868 6.31999L6.68678 2.31999C6.88205 2.12472 6.88205 1.80814 6.68678 1.61288Z" fill="#262626"/>
<path d="M9.6665 1.53345C9.94264 1.53345 10.1665 1.7573 10.1665 2.03345V14.0334C10.1665 14.3096 9.94264 14.5334 9.6665 14.5334C9.39037 14.5334 9.1665 14.3096 9.1665 14.0334V2.03345C9.1665 1.7573 9.39037 1.53345 9.6665 1.53345Z" fill="#262626"/>
<path d="M14.02 9.6799C14.2153 9.87516 14.2153 10.1917 14.02 10.387L10.02 14.387C9.82475 14.5822 9.50822 14.5822 9.31295 14.387C9.11769 14.1917 9.11769 13.8752 9.31295 13.6799L13.313 9.6799C13.5082 9.48463 13.8248 9.48463 14.02 9.6799Z" fill="#262626"/>
</svg>
